<svg width="77" height="50" viewBox="0 0 77 50" fill="none" xmlns="http://www.w3.org/2000/svg">
<path d="M57.3351 29.9339C55.3436 28.961 49.0203 25.5708 43.9014 22.4206C38.3296 18.9918 30.0434 14.7058 30.0434 14.7058L27.7575 13.7057C22.2014 10.9284 17.3811 10.5998 15.7896 10.567C15.6624 10.5641 15.5553 10.5627 15.471 10.5627C14.1666 10.5627 10.3235 10.9941 7.6205 12.2442C10.4964 10.7127 16.4082 7.49533 19.3827 5.62235C23.2401 3.19363 29.0976 0.0505676 34.5265 0.0505676C36.8424 0.0505676 39.3954 0.523455 41.5855 1.09206C43.7414 1.6521 45.833 2.43501 47.8345 3.4165C52.1419 5.52949 59.2324 8.75541 62.9569 9.55118C66.7972 10.3698 69.8731 12.1685 71.2589 13.2186C71.4403 13.3557 71.606 13.5143 71.7489 13.69L71.7432 13.6943C75.0163 19.2247 63.6498 26.7437 57.3351 29.9339Z" fill="#FEFEFE"/>
<path d="M18.0084 37.4525C17.8784 37.4253 17.8113 37.4096 17.8113 37.4096C17.7241 37.3896 17.6298 37.3682 17.5312 37.3453C15.8597 36.961 12.6795 36.2238 11.438 35.7924C9.43787 34.5323 7.00343 32.8522 4.72614 30.8878C3.21319 29.5834 1.95311 28.0047 1.07876 26.2075C0.340145 24.6874 -0.112741 23.0658 0.0244108 20.2657C0.19585 16.7797 4.9533 13.5738 7.31059 12.408C7.40917 12.3552 7.51346 12.3009 7.62061 12.2437C10.3236 10.9936 14.1667 10.5622 15.4711 10.5622C15.5554 10.5622 15.6626 10.5636 15.7897 10.5665C15.3625 11.1494 13.8182 13.3738 13.3281 15.7054C12.7567 18.4198 12.3281 19.5628 12.4709 21.9915C12.6138 24.4202 12.6138 30.8492 17.6141 36.9925L18.0084 37.4525Z" fill="#FEFEFE"/>
<path d="M76.029 39.4815C75.5061 41.3388 71.6002 45.7677 60.1709 48.625C52.599 50.518 44.9628 50.1322 39.4053 49.2136C35.9593 48.6435 32.622 47.5478 29.4918 45.9977C26.5373 44.5333 23.1399 42.8046 22.097 42.1246C20.2397 40.9102 16.9538 38.9101 15.4537 38.1243C14.8322 37.7986 13.3279 36.9828 11.4377 35.7927C12.6793 36.2242 15.8595 36.9614 17.531 37.3457C17.6296 37.3685 17.7239 37.39 17.811 37.41C17.811 37.41 17.8782 37.4257 18.0082 37.4543C19.9326 37.8571 35.7736 40.7002 57.0993 30.0524C57.1764 30.0138 57.255 29.9738 57.335 29.9338C63.6497 26.7436 75.0161 19.2245 71.7431 13.6942L71.7488 13.6899C71.8388 13.7999 71.9202 13.9156 71.9916 14.0385C72.2102 14.4114 72.4531 14.8957 72.6003 15.3371C72.8288 16.0229 74.9818 31.7182 76.029 39.4815Z" fill="#FEFEFE"/>
</svg>
